inDegrees=yes
name=ik_S57_A12_T01
DataType=double
version=3
OpenSimVersion=4.3-2021-08-27-4bc7ad9
endheader
time	pelvis_tilt	pelvis_list	pelvis_rotation	pelvis_tx	pelvis_ty	pelvis_tz	hip_flexion_r	hip_adduction_r	hip_rotation_r	knee_angle_r	knee_angle_r_beta	ankle_angle_r	subtalar_angle_r	mtp_angle_r	hip_flexion_l	hip_adduction_l	hip_rotation_l	knee_angle_l	knee_angle_l_beta	ankle_angle_l	subtalar_angle_l	mtp_angle_l	lumbar_extension	lumbar_bending	lumbar_rotation	arm_flex_r	arm_add_r	arm_rot_r	elbow_flex_r	pro_sup_r	wrist_flex_r	wrist_dev_r	arm_flex_l	arm_add_l	arm_rot_l	elbow_flex_l	pro_sup_l	wrist_flex_l	wrist_dev_l
4.159999999999999	0.09141606701834387	1.125849624533729	21.84413836326887	0	0.9399999999999999	0	36.05836893064432	-9.816409520008458	-9.450277577432162	40.69695658639116	0.7102958879737179	0	0	0	36.05836893064432	-9.816409520008458	-9.450277577432162	40.69695658639116	0.7102958879737179	0	0	0	-0.232986085810421	0.5175451966052309	-0.1496398998317385	3.121327456420781	-1.131133255314071	-1.592594708283412	-0.504318365863571	99.28675945996038	0	0	89.62504062947211	-42.51131090100751	66.36446796652147	57.76392598116807	12.94314486542786	0	0
4.179999999999999	0.06481308050423711	1.138699642069962	21.5896456614527	0	0.9399999999999999	0	36.06471938414036	-9.816859754806719	-9.45114169440067	40.70398009515236	0.7104184713266435	0	0	0	36.06471938414036	-9.816859754806719	-9.45114169440067	40.70398009515236	0.7104184713266435	0	0	0	-0.2542752946234919	0.5401853062586391	-0.04724079528906035	3.185102651551127	-1.099746351118612	-2.033495299265669	-0.4409543098615138	98.83096376297962	0	0	91.72829109369948	-41.93240498738926	68.28746760185281	56.44116796094072	10.87312740013906	0	0
4.199999999999998	0.07109460237348236	1.135039384332805	21.41876385395578	0	0.9399999999999999	0	36.07092591466661	-9.817298476635846	-9.45198481983323	40.71085370744149	0.7105384384925943	0	0	0	36.07092591466661	-9.817298476635846	-9.45198481983323	40.71085370744149	0.7105384384925943	0	0	0	-0.2526208411880038	0.5374152091806974	0.0722962039627715	3.222695451915892	-1.034784621658391	-2.223614421307122	-0.4210478810311948	98.95789995790454	0	0	93.41959303207035	-41.40049784444973	69.87844554168061	55.67547354590163	8.707645377038144	0	0
4.219999999999998	0.04917427471580221	1.212080583866538	21.05748405916583	0	0.9399999999999999	0	36.07849485013006	-9.817833238448619	-9.453013018421963	40.71922695522406	0.7106845792354854	0	0	0	36.07849485013006	-9.817833238448619	-9.453013018421963	40.71922695522406	0.7106845792354854	0	0	0	-0.2418114550218447	0.6167387703123196	5.565351509546873e-05	3.304956158626433	-1.147939376296404	-1.991011466435841	-0.4291065094062602	99.14493494819654	0	0	94.81614326327212	-41.34589905942428	71.08325303005684	55.11460588365268	6.596764434949628	0	0
4.239999999999998	-0.06020207573422084	1.262811731069053	20.57839584838015	0	0.9399999999999999	0	36.08708823392886	-9.818439338067593	-9.454179491622149	40.72873185691196	0.7108504710650176	0	0	0	36.08708823392886	-9.818439338067593	-9.454179491622149	40.72873185691196	0.7108504710650176	0	0	0	-0.3199142271941107	0.7006446219660848	-0.1511718901404965	3.624534387156077	-1.238673171343374	-1.83444110342585	-0.5633917804924181	99.63474514938729	0	0	96.44544785942846	-41.47322522722004	72.30472485689792	54.16754650788642	5.418081905926194	0	0
4.259999999999997	-0.1495200084748974	1.328693848034895	20.10086998947743	0	0.9399999999999999	0	36.09329173453228	-9.818875812653753	-9.455020498997063	40.73559756538096	0.7109703002832838	0	0	0	36.09329173453228	-9.818875812653753	-9.455020498997063	40.73559756538096	0.7109703002832838	0	0	0	-0.3748728958879744	0.793565255533625	-0.3307287174284161	3.889120350459779	-1.341917268852361	-1.659179811302577	-0.5892974781424197	100.1435960820639	0	0	97.74263755288037	-41.69161044561015	73.19661608693471	53.51898489639385	4.083795829266739	0	0
4.279999999999997	-0.1945537437462145	1.358666487869279	19.73168069865308	0	0.9399999999999999	0	36.10055622809624	-9.819386441190201	-9.45600502107583	40.74363271734665	0.7111105401409832	0	0	0	36.10055622809624	-9.819386441190201	-9.45600502107583	40.74363271734665	0.7111105401409832	0	0	0	-0.4045144765165566	0.837892341644104	-0.417148384008675	4.172330896333673	-1.232473890612355	-2.187898012674236	-0.7280187461575787	100.9264672008469	0	0	98.91469839476461	-41.68100231656835	74.07779816226339	53.00574351872232	2.65480976732657	0	0
4.299999999999996	-0.1703335297499846	1.363256269133007	19.57886435171903	0	0.9399999999999999	0	36.10317573072189	-9.819569837408711	-9.456359179569299	40.74653772034817	0.7111612420081399	0	0	0	36.10317573072189	-9.819569837408711	-9.456359179569299	40.74653772034817	0.7111612420081399	0	0	0	-0.379473383373031	0.8341569184845535	-0.4399357531855946	4.23071105634862	-1.126915644008641	-2.5998249830205	-0.7890384932650245	101.1191676354745	0	0	98.90864720768684	-41.84536828587013	74.04552570026495	53.34139744091546	2.409032424890333	0	0
4.319999999999996	-0.1486175038331321	1.367979980637263	19.37502188573943	0	0.9399999999999999	0	36.11055326328831	-9.820086934887142	-9.457357602559876	40.75470151234039	0.7113037270578523	0	0	0	36.11055326328831	-9.820086934887142	-9.457357602559876	40.75470151234039	0.7113037270578523	0	0	0	-0.3571942599075683	0.8317241937218873	-0.4297641566695492	4.291840303458894	-1.012329690663165	-3.089534573412681	-0.8500074158136787	101.3859297975434	0	0	100.024158441805	-41.59910480273325	75.07085638059537	52.81842326555162	1.36903665876611	0	0
